<svg xmlns="http://www.w3.org/2000/svg" version="1.1" xmlns:xlink="http://www.w3.org/1999/xlink" xmlns:svgjs="http://svgjs.dev/svgjs" width="1000" height="1000"><g clip-path="url(#SvgjsClipPath1166)"><rect width="1000" height="1000" fill="#ffffff"></rect><g transform="matrix(4.9504950495049505,0,0,4.9504950495049505,0,0)"><svg xmlns="http://www.w3.org/2000/svg" version="1.1" xmlns:xlink="http://www.w3.org/1999/xlink" xmlns:svgjs="http://svgjs.dev/svgjs" width="202" height="202"><svg width="202" height="202" viewBox="0 0 202 202" fill="none" xmlns="http://www.w3.org/2000/svg">
<g opacity="0.2">
<path d="M169.855 153.567L135.613 91.0048L101.37 28.4423L67.1271 91.0048L32.8843 153.567" stroke="#7CDB64" stroke-width="24" stroke-linecap="round" stroke-linejoin="round"></path>
<path d="M135.798 95.0769H66.2017" stroke="#7CDB64" stroke-width="24" stroke-linecap="round" stroke-linejoin="round"></path>
</g>
<rect x="12" y="-12" width="178" height="178" rx="89" transform="matrix(-1 0 0 1 202 24)" stroke="#7CDB64" stroke-width="24"></rect>
<path d="M39.5478 46.9519L70.4589 109.404L101.37 171.855L132.281 109.404L163.192 46.9519" stroke="white" stroke-width="36" stroke-linecap="round" stroke-linejoin="round"></path>
<path d="M39.5478 46.9519L70.4589 109.404L101.37 171.855L132.281 109.404L163.192 46.9519" stroke="#7CDB64" stroke-width="24" stroke-linecap="round" stroke-linejoin="round"></path>
</svg></svg></g></g><defs><clipPath id="SvgjsClipPath1166"><rect width="1000" height="1000" x="0" y="0" rx="500" ry="500"></rect></clipPath></defs></svg>